<?xml version="1.0" encoding="UTF-8"?>
<svg viewBox="0 0 426.73 746.26" xmlns="http://www.w3.org/2000/svg">
 <path d="m212.77 5c-30.79 24.506-267.46 229.9-88.188 623.22h179.25c179.27-393.32-57.396-598.68-88.188-623.19l-2.875-0.0312z" fill="#ececec" fill-rule="evenodd" stroke="#000" stroke-width="10"/>
 <path d="m220.19 259.65c-37.293 0-67.625 30.363-67.625 67.656s30.332 67.625 67.625 67.625 67.656-30.332 67.656-67.625-30.363-67.656-67.656-67.656zm0 8c32.965 0 59.656 26.692 59.656 59.656 0 32.965-26.691 59.625-59.656 59.625s-59.625-26.66-59.625-59.625c3.1e-5 -32.965 26.66-59.656 59.625-59.656z" fill="#ccc" stroke-linecap="round" stroke-width="8"/>
 <g fill-rule="evenodd">
  <g stroke="#000">
   <g fill="#f00">
    <path d="m93.419 166.48l43.437-79.802 60.609-68.69 17.173-13.132 64.65 67.68 50.508 81.822 4.0406 17.173-241.43-1.0102"/>
    <g stroke-width="10">
     <path d="m69.175 470.54s-107.08-1.3336-42.426 270.72c0 0 6.0609-227.16 62.63-199.15"/>
     <path d="m359.55 470.54s107.08-1.3336 42.426 270.72c0 0-6.0609-227.16-62.63-199.15"/>
    </g>
   </g>
   <path d="m98.47 572.56l26.264 55.558 179.81-1.0102 21.213-54.548h-227.28z" fill="#b3b3b3"/>
  </g>
  <g fill="#d20000">
   <path d="m384.34 497.81l-20.203 50.508-12.122-10.102-14.142 6.0609 19.193-75.761 34.345 17.173s59.599 41.416 13.132 247.49c27.274-213.14-21.213-235.37-20.203-235.37z"/>
   <path d="m23.718 738.23s-10.061-220.37 58.589-221.22c7.5756-0.094299 7.071 24.244 7.071 24.244l-27.274 6.0609-21.213 66.67-17.173 124.25z"/>
  </g>
  <path d="m259.87 572.57c4.0529 12.21 6.448 29.248 5.2812 53.531 0.86221 0.30377 1.7754 0.73004 2.7188 1.2188l36.656-0.2188 17.094-43.938c-0.68954-3.7542-1.4863-7.1047-2.25-10.594h-59.5z" fill="#999"/>
  <g fill="#ccc">
   <path d="m233.85 465.92c-6.8185-0.5051-11.125 0.56247-11.125 0.56247l-5.0625 77.781s24.335-4.8055 35.812 28.312h59.625c-19.366-90.309-59.667-105.21-79.25-106.66z"/>
   <path d="m101.31 577.09l20 50 28 2-8-57-40 5z"/>
  </g>
  <g fill="none" stroke="#000" stroke-width="10">
   <path d="m212.77 5c-30.79 24.506-267.46 229.9-88.188 623.22h179.25c179.27-393.32-57.396-598.68-88.188-623.19l-2.875-0.0312z"/>
   <path d="m93.419 168.5h237.39"/>
  </g>
 </g>
 <g stroke="#000">
  <g stroke-linecap="round">
   <path d="m277.85 321.3a63.64 63.64 0 1 1 -127.28 0 63.64 63.64 0 1 1 127.28 0z" fill="#b3b3b3" stroke-width="8"/>
   <path d="m255.63 321.3a41.416 41.416 0 1 1 -82.832 0 41.416 41.416 0 1 1 82.832 0z" fill="#80e5ff" stroke-width="12.293"/>
  </g>
  <g stroke-width="10">
   <path d="m101.5 573.57h224.25" fill="none"/>
   <path d="m205.12 468.52h18.183v272.74h-18.183v-272.74z" fill="#f00" stroke-linecap="round"/>
  </g>
 </g>
 <path d="m315.65 560.44s80.812-185.87 16.162-364.66c3.0305 317.19-83.843 364.66-83.843 364.66h67.68z" fill="#ccc" fill-rule="evenodd"/>
 <g stroke-linecap="round">
  <rect transform="matrix(.70389 .7103 -.70389 .7103 0 0)" x="360.77" y="31.575" width="34.47" height="83.714" fill="#fff" stroke-width="10"/>
  <path d="m255.63 321.3a41.416 41.416 0 1 1 -82.832 0 41.416 41.416 0 1 1 82.832 0z" fill="none" stroke="#000" stroke-width="12.293"/>
 </g>
 <g fill-rule="evenodd">
  <path d="m306.56 153.35s-31.315-81.822-90.914-125.26c54.548 105.06 26.264 125.26 26.264 125.26h64.65z" fill="#d20000"/>
  <g fill="none" stroke="#000" stroke-width="10">
   <path d="m359.55 470.54s107.08-1.3336 42.426 270.72c0 0-6.0609-227.16-62.63-199.15"/>
   <path d="m69.175 470.54s-107.08-1.3336-42.426 270.72c0 0 6.0609-227.16 62.63-199.15"/>
  </g>
  <g fill="#fff">
   <path d="m107.56 150.32s53.538-104.05 97.985-131.32c44.447-27.274-96.975 133.34-97.985 131.32z"/>
   <path d="m76.027 426.8c-3.1638-1.7567-22.724-145.96 25.714-235.71 29.867-24.039 70.502-11.397 68.571-1.4286-16.727 86.351-75.47 247.59-94.286 237.14z"/>
  </g>
 </g>
 <g stroke="#000">
  <g stroke-width="5">
   <rect x="202.36" y="464.74" width="21" height="166" fill="#7f7f7f"/>
   <rect x="203.36" y="634.74" width="22" height="110" fill="#fff"/>
  </g>
  <g stroke-dasharray="null" stroke-linecap="round" stroke-width="10">
   <rect x="111.36" y="416.74" width="206" height="150" fill="#7f7f7f"/>
   <g fill="none">
    <line x1="149.36" x2="125.36" y1="632.74" y2="740.74"/>
    <line x1="279.36" x2="303.36" y1="633.74" y2="740.74"/>
    <line x1="125.36" x2="301.36" y1="741.74" y2="741.74"/>
    <g stroke-linejoin="null">
     <line x1="149.36" x2="149.36" y1="631.74" y2="630.74"/>
     <line x1="184.36" x2="184.36" y1="634.74" y2="636.74"/>
     <line x1="152.36" x2="274.36" y1="633.74" y2="634.74"/>
     <line x1="146.36" x2="278.36" y1="652.74" y2="653.74"/>
     <line x1="146.36" x2="281.36" y1="668.74" y2="669.74"/>
     <line x1="142.36" x2="286.36" y1="682.74" y2="682.74"/>
     <line x1="136.36" x2="289.36" y1="696.74" y2="697.74"/>
     <line x1="134.36" x2="292.36" y1="708.74" y2="709.74"/>
     <line x1="130.36" x2="297.36" y1="720.74" y2="721.74"/>
     <line x1="129.36" x2="298.36" y1="730.74" y2="730.74"/>
     <line x1="129.36" x2="299.36" y1="737.74" y2="736.74"/>
    </g>
   </g>
  </g>
 </g>
</svg>
