<svg viewBox="0 0 3840 1080" xmlns="http://www.w3.org/2000/svg" xmlns:xlink="http://www.w3.org/1999/xlink"><defs><linearGradient id="n" x1="1377" x2="1375.2" y1="-39.036" y2="511.81" gradientTransform="matrix(1 0 0 .9106 0 -7.112)" gradientUnits="userSpaceOnUse"><stop stop-color="#22538e" offset="0"/><stop stop-color="#80a2c7" offset=".548"/><stop stop-color="#e1eae9" offset="1"/></linearGradient><linearGradient id="a"><stop stop-color="#633324" offset="0"/><stop stop-color="#4b2c26" offset="1"/></linearGradient><linearGradient id="b"><stop stop-color="#47241d" offset="0"/><stop stop-color="#47241d" stop-opacity="0" offset="1"/></linearGradient><linearGradient id="c"><stop stop-color="#2b1100" offset="0"/><stop stop-color="#2b1100" stop-opacity="0" offset="1"/></linearGradient><linearGradient id="t" x1="1192.8" x2="1191" y1="427.5" y2="458.69" gradientUnits="userSpaceOnUse"><stop stop-color="#492821" offset="0"/><stop stop-color="#583025" offset="1"/></linearGradient><linearGradient id="d"><stop stop-color="#894f2a" offset="0"/><stop stop-color="#902b11" offset="1"/></linearGradient><linearGradient id="e"><stop stop-color="#2d1f20" offset="0"/><stop stop-color="#c47c4f" offset=".502"/><stop stop-color="#422b27" offset="1"/></linearGradient><linearGradient id="f"><stop stop-color="#4d322b" offset="0"/><stop stop-color="#302625" offset="1"/></linearGradient><linearGradient id="g"><stop stop-color="#55342b" offset="0"/><stop stop-color="#ce7340" offset="1"/></linearGradient><linearGradient id="h"><stop stop-color="#412f2f" offset="0"/><stop stop-color="#ba6e3c" offset="1"/></linearGradient><linearGradient id="i"><stop stop-color="#955e42" offset="0"/><stop stop-color="#945936" offset="1"/></linearGradient><linearGradient id="j"><stop stop-color="#fba568" offset="0"/><stop stop-color="#c9723e" offset="1"/></linearGradient><linearGradient id="k"><stop stop-color="#33211a" offset="0"/><stop stop-color="#5a382f" offset="1"/></linearGradient><linearGradient id="l"><stop stop-color="#c9723e" offset="0"/><stop stop-color="#e28b53" offset="1"/></linearGradient><linearGradient id="S" x1="3148.7" x2="3146.4" y1="877.17" y2="1076.9" gradientUnits="userSpaceOnUse"><stop offset="0"/><stop stop-opacity="0" offset="1"/></linearGradient><linearGradient id="o" x1="2295.4" x2="2298.8" y1="-388.04" y2="-473.06" gradientUnits="userSpaceOnUse" xlink:href="#a"/><linearGradient id="p" x1="2295.3" x2="2295.3" y1="-531.01" y2="-453.65" gradientUnits="userSpaceOnUse" xlink:href="#b"/><linearGradient id="q" x1="2266.4" x2="2264.6" y1="-561.2" y2="-637.55" gradientUnits="userSpaceOnUse" xlink:href="#c"/><linearGradient id="r" x1="2223.5" x2="2224.1" y1="-560.6" y2="-617.71" gradientUnits="userSpaceOnUse" xlink:href="#c"/><linearGradient id="s" x1="1200.9" x2="1199.9" y1="516.74" y2="414.67" gradientUnits="userSpaceOnUse" xlink:href="#a"/><linearGradient id="u" x1="2354.5" x2="2358.3" y1="468.04" y2="373.52" gradientUnits="userSpaceOnUse" xlink:href="#a"/><linearGradient id="v" x1="2354.4" x2="2354.4" y1="309.1" y2="395.11" gradientUnits="userSpaceOnUse" xlink:href="#b"/><linearGradient id="w" x1="2322.4" x2="2320.4" y1="275.54" y2="190.67" gradientUnits="userSpaceOnUse" xlink:href="#c"/><linearGradient id="x" x1="2274.6" x2="2275.3" y1="276.21" y2="212.72" gradientUnits="userSpaceOnUse" xlink:href="#c"/><linearGradient id="y" x1="1654.3" x2="1668.8" y1="1127.2" y2="499.53" gradientTransform="matrix(1.0107 0 0 .9162 -22.966 69.64)" gradientUnits="userSpaceOnUse" xlink:href="#d"/><linearGradient id="z" x1="1649.2" x2="1663.7" y1="1102.3" y2="139.61" gradientTransform="matrix(1.012 0 0 .70257 -28.049 305.61)" gradientUnits="userSpaceOnUse" xlink:href="#d"/><linearGradient id="A" x1="2835" x2="3851.9" gradientUnits="userSpaceOnUse" xlink:href="#e"/><linearGradient id="B" x1="2957.1" x2="3160.6" gradientUnits="userSpaceOnUse" xlink:href="#f"/><linearGradient id="C" x1="3097.2" x2="3731.8" gradientUnits="userSpaceOnUse" xlink:href="#g"/><linearGradient id="D" x1="3602.5" x2="3890.7" gradientUnits="userSpaceOnUse" xlink:href="#h"/><linearGradient id="E" x1="2468.3" x2="2733.2" y1="1454.2" y2="1510.4" gradientTransform="matrix(2.2098 -.1033 .15676 3.3534 -2403.1 -4045.2)" gradientUnits="userSpaceOnUse" xlink:href="#i"/><linearGradient id="F" x1="2984" x2="3426.6" y1="539.92" y2="721.32" gradientUnits="userSpaceOnUse" xlink:href="#j"/><linearGradient id="G" x1="2796.1" x2="3371.5" y1="615.01" y2="738.36" gradientUnits="userSpaceOnUse" xlink:href="#k"/><linearGradient id="H" x1="3593.5" x2="3566.3" y1="761.9" y2="613.11" gradientUnits="userSpaceOnUse" xlink:href="#l"/><linearGradient id="I" x1="2740.3" x2="3859.9" gradientUnits="userSpaceOnUse" xlink:href="#e"/><linearGradient id="J" x1="2874.6" x2="3098.8" gradientUnits="userSpaceOnUse" xlink:href="#f"/><linearGradient id="K" x1="3028.9" x2="3727.7" gradientUnits="userSpaceOnUse" xlink:href="#g"/><linearGradient id="L" x1="3585.3" x2="3902.7" gradientUnits="userSpaceOnUse" xlink:href="#h"/><linearGradient id="O" x1="2468.3" x2="2733.2" y1="1454.2" y2="1510.4" gradientTransform="matrix(2.4332 -.11375 .17261 3.6925 -3027.6 -4574.2)" gradientUnits="userSpaceOnUse" xlink:href="#i"/><linearGradient id="P" x1="2904.2" x2="3391.7" y1="474.63" y2="674.37" gradientUnits="userSpaceOnUse" xlink:href="#j"/><linearGradient id="Q" x1="2697.3" x2="3331" y1="557.31" y2="693.13" gradientUnits="userSpaceOnUse" xlink:href="#k"/><linearGradient id="R" x1="3575.4" x2="3545.5" y1="688.62" y2="524.79" gradientUnits="userSpaceOnUse" xlink:href="#l"/><radialGradient id="M" cx="795.4" cy="511.72" r="121.11" gradientTransform="matrix(2.7816 .62342 -.58709 2.4975 -330.47 -870.54)" gradientUnits="userSpaceOnUse"><stop stop-color="#f39d61" offset="0"/><stop stop-color="#c9723e" offset="1"/></radialGradient><clipPath id="m"><path d="M0-27.638h3840v1080H0z"/></clipPath><filter id="N" x="-.114" y="-.126" width="1.229" height="1.252"><feGaussianBlur stdDeviation="30.642"/></filter></defs><g transform="translate(0 27.638)" clip-path="url(#m)"><path d="M-65.302-79.545h3956.6v574.82h-3956.6z" fill="url(#n)"/><path d="M-23.059 492.33l59.975-16.279s20.099 18.623 31.682 22.523c55.94 18.837 172.97.995 172.97.995s112.25 2.202 200.48-5.176c28.648-2.396 45.19-18.708 67.096-19.496 13.997-.504 31.63 13.665 48.596 13.595 66.229-.274 148.86-2.77 204.96-4.75 38.252-1.35 33.857-19.291 33.857-19.291s189.94 5.524 269.83 3.047c18.742-.58 36.348 14.26 65.758 18.03 50.224 6.44 117.78 3.642 160.44 3.48 125.09-.473 207.75-23.447 207.75-23.447s193.52 13.754 345.1 11.077c27.343-.483 67.125-29.418 89.26-28.93 73.93 1.626 221.38 18.864 221.38 18.864s34.649 16.59 111.91 8.704c104.64-10.68 271.06-44.19 382.35-18.221 22.04 5.143 55.01-7.407 73.299 1.111 15.209 7.084 37.65 40.732 37.65 40.732s217.19 11.555 287.94 2.641c28.859-3.636 12.349-25.567 40.01-29.87 33.799-5.258 53.146-2.781 80.953-2.68 9.992.037 25.885 17.428 35.287 18.094 46.133 3.268 81.488-3.753 144.65 4.477 93.402 12.17 195.62 15.438 195.62 15.438s126.2-13.405 189.44-14.786c41.368-.904 124.08 4.255 124.08 4.255l32.105 102.04-3919.3-38.484z" fill="#a3a2a8"/><path d="M1287.921 434.337l-.052-15.4-2.08-64.258s-2.064-2.533-2.733-4.132c-1.198-2.864.262-8.471-2.132-9.397-1.83-.709-.217-5.576-1.67-7.2-1.155-1.29-3.183.178-4.504-.795-1.33-.98-1.386-4.33-2.89-4.664-4.255-.945-9.433-.878-12.771-.94-2.376-.043-3.573 4.42-5.831 5.392-3.921 1.689-8.305 1.218-12.376.332-2.337-.51-4.338-2.72-6.679-3.194-5.015-1.015-10.326-.955-15.208.864-2.402.896-4.257 3.474-6.54 4.802-3.405 1.982-10.025-.192-10.59 4.676-2.05 17.632-1.957 34.383-1.957 34.383l-1.152.23-.03-1.077-1.779.046c-.558 1.669.39 8.29.012 10.108-.413 1.991-1.837.966-1.95.486l-.44-2.062-3.338 1.182-1.538 2.362.309 4.796-5.786 3.926-2.477-.934-.499-42.432-1.172-1.955-3.342-.007-1.152 34.452-2.142 5.152.062 8.156-2.238 3.107s.283 15.705-1.218 23.201c-.849 4.237-4.312 11.858-4.312 11.858l-.2 11.863z" fill="#4b2c26"/><path d="M2437.7-447.07l12.023 3.607 8.416 6.012 7.214 10.82 13.226 2.405 1.203 9.62 7.214 3.606 14.428 9.619 25.249 13.226 7.214 6.012 10.82 4.809 7.215 1.202 10.82 4.81 15.63 3.606 3.608 6.012 9.618 7.214 10.821 4.81 13.226 12.022s14.428 7.214-4.81 1.203-668.5-9.619-668.5-9.619l30.059-15.63 22.844-2.405 14.428-9.618 16.833-7.214 18.035-10.821 10.82 1.202 22.845-7.214 12.023-4.81 6.012-6.011 16.833-9.619 7.214-3.607 12.023-9.619 8.416-1.202v-8.416l7.214-3.607 10.82-7.214 15.63-4.81 12.024-7.214 12.023-4.809z" fill="url(#o)" transform="matrix(-.5067 0 0 .66642 2401.8 741.99)"/><path d="M1230.968 525.99l-2.584-17.765-7.754-5.666-5.17-3.4-10.339-5.665-9.477 2.266-8.616 4.532-10.338 1.134-11.201 7.932-16.37 2.266-9.477 12.1-10.339 9.065z" fill="#72422c"/><path d="M1317.057 448.465v3.092l-1.659 1.243-15.512 1.132-7.745-1.132-6.046 2.264-10.327 2.263-6.024 1.132h-9.488s-4.298 1.135-9.467-1.132-3.464 0-3.464 0l-8.606 2.264h-12.93s-12.927-1.13-16.373-2.264-5.164-2.263-5.164-2.263l-15.512 5.66-12.049-3.397s-6.897 1.129-15.512 4.528c-5.67 2.237-9.834-.918-12.028-3.34l3.421-.829.903-1.767 163.583-7.453zm25.588 25.231l4.534 2.374-5.08 2.789-9.466 3.395h-13.791l-20.676-2.263-9.467 3.395h-6.045l-13.77-1.132-8.627 3.396h-21.537l-8.606-2.264-12.07 1.132-18.094 5.66-8.607 2.291-11.209-1.16-10.348-3.395-11.188 2.264-10.348-1.132-6.025 1.132-10.348 1.132h-7.745l-12.238-.663.483-.11 5.478-3.203.357-.386 11.083-2.43 213.351-10.822z" fill="#47241d"/><path d="M2199.2-503.96l-.829 19.181-.082 23.116 196.73 15.825h44.741l-.331-14.209s-6.818-11.456-8.493-17.813c-.577-2.192-1.026-4.843-1.367-7.705-1.872.44-6.573 1.45-9.28 1.45h-11.888s-15.324-6.814-18.725-7.664-5.938-.849-11.89-1.699-15.327-.828-15.327-.828-11.905-.849-16.156-1.699-10.205.85-16.156 0-14.448-.846-22.95-3.397-21.244 3.377-28.046 2.527-16.985-6.794-16.985-6.794-12.754 4.267-17.855 4.267-21.252-1.698-21.252-1.698l-23.862-2.859z" fill="url(#p)" transform="matrix(-.5067 0 0 .66642 2401.8 741.99)"/><path d="M1196.918 384.276l.042 1.656-.42 5.108v7.923l-.441-1.684-.86-3.396v-5.687l.86-2.816-.042-.11c.336-.029.674-.28.86-.995z" fill="#28170b"/><path d="M2262.1-617.26l.911 8.161v13.629l1.699 11.889-1.699 23.82 5.096 23.779-1.699-15.286 6.794-13.629-5.095-32.271-1.699-10.232.497-6.338c-.066-.021-.14-.02-.207-.042-1.772-.58-3.21-1.997-4.598-3.48z" fill="url(#q)" transform="matrix(-.5067 0 0 .66642 2401.8 741.99)"/><path d="M2224.9-613.91a3.559 3.559 0 01-.622.414c-.2.113-.405.218-.62.29l1.283 8.451v.042l1.699 8.368-2.527 12.635v17.109l-1.699 10.978 1.285.207 1.698-11.061.042-.041v-17.068l2.527-12.635.042-.125-.042-.124-1.698-8.492-1.368-8.949z" fill="url(#r)" transform="matrix(-.5067 0 0 .66642 2401.8 741.99)"/><path d="M681.4 462.11l1.848-125.31 12.93-4.914 3.694-19.656 12.93-2.457 20.32-29.484h29.557l64.654 7.37 9.236 17.2 9.237 7.371 11.083 17.199 7.389 17.199 3.694 24.57v93.367z" fill="#4b2c26"/><path d="M1030.8 534.84l41.255-27.621 17.044-20.844 13.016-5.37 17.353-19.877 187.44-7.37 32.679 23.48 17.886 20.365 39.087 27.408c-133.68 7.926-242.09 9.617-365.76 9.828z" fill="url(#s)" transform="translate(-438)"/><path d="M1238 417.18l-18.697 6.678h-10.684l-13.401 2.67-8.013-5.342-9.349 5.343-20.033-2.671c-5.346 0-14.734-1.336-18.743-1.336h-12.02l-7.046-1.75-.599 41.355 186.6 2.44v-38.775l-3.868-1.934-8.013-5.342-28.046 6.677-28.092-8.013z" fill="url(#t)" transform="translate(-438)"/><path d="M889.5 468.58l-215.71 1.243-4.605 5.296 5.434 1.244 14.783-.645 22.013-2.855 10.224 2.349 6.493-.323 14.644-1.566 9.349 2.35 23.026-1.014 9.118-2.21 12.987.322 19.526 3.776 9.303 1.428 11.928-1.474 10.96-3.224 12.02 1.29 11.052-1.382 6.447.599 11.1.46 7.276-.322-7.369-5.342zM647.8 490.4l-2.993 3.638 25.513.921 14.23-1.013 11.099 1.98 18.974 1.98 11.099.968h17.408s7.906.997 17.408-.968 6.355 0 6.355 0l15.842 1.935h23.763s23.784-.952 30.118-1.935 9.486-1.98 9.486-1.98l28.506 4.928 22.151-2.948s12.67.968 28.506 3.915l.277.046-6.126-4.283-1.197-1.382L647.8 490.4zm67.8-184.62l-2.763 4.007-.323.046-.184 2.348 1.888 10.408.967 7.553.921 16.072v28.368l2.856 9.44 1.888-11.328.921-17.96-3.776-23.625 1.888-12.296-.921-4.744-3.362-8.29z" fill="#47241d"/><path d="M1910.7 386.21l.115-25.69 4.564-107.19s4.527-4.225 5.995-6.893c2.628-4.777-.574-14.13 4.678-15.675 4.015-1.18.475-9.3 3.665-12.01 2.533-2.15 6.981.297 9.88-1.326 2.92-1.634 3.041-7.224 6.34-7.78 9.336-1.576 20.696-1.465 28.019-1.567 5.211-.072 7.839 7.37 12.792 8.993 8.602 2.817 18.22 2.032 27.15.553 5.128-.849 9.517-4.536 14.654-5.326 11.002-1.694 22.655-1.594 33.366 1.441 5.27 1.494 9.34 5.794 14.349 8.01 7.472 3.305 21.995-.321 23.236 7.8 4.494 29.41 4.291 57.355 4.291 57.355l2.527.384.068-1.799 3.902.078c1.224 2.784-.854 13.827-.026 16.861.906 3.322 4.03 1.612 4.276.812l.968-3.44 7.321 1.97 3.376 3.94-.678 8 12.692 6.551 5.436-1.558 1.093-70.782 2.573-3.261 7.332-.011 2.526 57.468 4.7 8.594-.135 13.606 4.908 5.182s-.62 26.197 2.673 38.702c1.862 7.068 9.461 19.78 9.461 19.78l.44 19.79z" fill="#4b2c26"/><path d="M2512.8 402.41l13.366 4.01 9.356 6.683 8.02 12.029 14.702 2.673 1.336 10.693 8.02 4.01 16.039 10.693 28.068 14.702 8.02 6.683 12.028 5.346 8.02 1.337 12.029 5.346 17.376 4.01 4.01 6.683 10.693 8.02 12.029 5.346 14.703 13.366s16.039 8.02-5.347 1.336-743.14-10.693-743.14-10.693l33.415-17.376 25.395-2.673 16.04-10.693 18.711-8.02 20.05-12.028 12.028 1.336 25.395-8.02 13.366-5.346 6.683-6.683 18.712-10.693 8.02-4.01 13.366-10.692 9.356-1.337v-9.356l8.02-4.01 12.028-8.02 17.376-5.346 13.366-8.02 13.366-5.346z" fill="url(#u)" transform="translate(-336)"/><path d="M2035.5 539.09l5.67-29.634 17.013-9.451 11.34-5.67 22.684-9.452 20.793 3.78 18.902 7.561 22.683 1.89 24.573 13.233 35.914 3.78 20.792 20.183 22.683 15.122z" fill="#72422c"/><path d="M1846.7 409.77v5.158l3.638 2.072 34.033 1.888 16.993-1.888 13.263 3.777 22.658 3.776 13.217 1.888h20.816s9.428 1.892 20.77-1.888 7.599 0 7.599 0l18.882 3.776h28.368s28.36-1.886 35.92-3.776 11.33-3.776 11.33-3.776l34.033 9.44 26.434-5.664s15.13 1.882 34.033 7.552c12.437 3.732 21.574-1.53 26.388-5.572l-7.507-1.381-1.98-2.948-358.89-12.434zm-56.2 42.09l-9.947 3.96 11.145 4.652 20.77 5.664h30.256l45.362-3.776 20.77 5.664h13.263l30.21-1.888 18.928 5.665h47.25l18.88-3.777 26.48 1.889 39.698 9.44 18.88 3.823 24.593-1.935 22.704-5.664 24.546 3.776 22.704-1.888 13.217 1.888 22.704 1.889h16.993l26.848-1.106-1.06-.184-12.02-5.342-.782-.645-24.316-4.052-468.08-18.053z" fill="#47241d"/><path d="M2247.7 339.17l-.921 21.322-.091 25.697 218.7 17.592h49.737l-.369-15.796s-7.579-12.735-9.44-19.802c-.642-2.437-1.142-5.384-1.52-8.566-2.082.49-7.308 1.612-10.316 1.612h-13.217s-17.035-7.574-20.816-8.52-6.602-.943-13.217-1.888-17.04-.92-17.04-.92-13.235-.944-17.96-1.889-11.345.945-17.96 0-16.062-.94-25.513-3.776-23.617 3.754-31.177 2.81-18.882-7.554-18.882-7.554-14.178 4.744-19.848 4.744-23.625-1.888-23.625-1.888l-26.526-3.178z" fill="url(#v)" transform="translate(-336)"/><path d="M2110.3 302.7l-.091 2.763.921 8.52V327.2l.967-2.81 1.888-5.664v-9.487l-1.888-4.697.092-.184c-.738-.047-1.48-.465-1.888-1.658z" fill="#28170b"/><path d="M2317.6 213.22l1.013 9.072v15.151l1.888 13.217-1.888 26.48 5.665 26.434-1.889-16.993 7.553-15.15-5.664-35.876-1.889-11.375.553-7.046c-.073-.023-.157-.022-.23-.046-1.97-.645-3.569-2.22-5.112-3.868z" fill="url(#w)" transform="translate(-336)"/><path d="M2276.2 216.95c-.203.18-.454.328-.69.46a4.09 4.09 0 01-.692.323l1.428 9.395v.046l1.888 9.302-2.81 14.046v19.02l-1.887 12.203 1.428.23 1.888-12.296.047-.046V250.66l2.809-14.046.047-.138-.047-.138-1.888-9.44-1.52-9.948z" fill="url(#x)" transform="translate(-336)"/><path d="M3892.1 1092l-3946.2 9.401-5.185-568.78 1830.5-28.204 2110.5 42.306z" fill="url(#y)"/><path d="M-74.656 1027.6l3951.3 7.21 5.192-436.16s-131.15 25.598-263.84 27.631c-131.58 2.016-396.43-34.859-528.03-35.884-142.69-1.11-285.43 28.667-428.06 24.952-126.85-3.304-217.21 13.192-343.64 3.024-77.67-6.246-191.32-41.72-269.28-41.353-73.239.345-140.96 43.18-213.83 50.184-52.394 5.037-109.93-25.797-162.49-23.086-112.66 5.812-210.05 40.715-322.88 43.84-89.76 2.485-194.94-26.445-284.72-24.87-178.24 3.125-356.58 4.788-534.82 2.064-101.21-1.547-202.25-7.797-303.42-10.45-96.998-2.544-291.07-5.241-291.07-5.241z" fill="#78381e"/><path d="M3892.1 1089.6l-3951.3 7.21-5.192-436.16s264.55 20.467 397.24 22.501c131.58 2.016 263.03-9.206 394.63-10.23 142.69-1.11 285.43 8.145 428.06 4.43 204.78-5.333 408.05-39.293 612.92-38.329 125.9.593 250.66 20.616 376.32 27.098 202.29 10.435 404.97 15.416 607.6 18.97 178.24 3.125 356.58 4.787 534.82 2.063 101.21-1.546 202.25-7.796 303.42-10.45 96.998-2.543 291.07-5.24 291.07-5.24z" fill="url(#z)"/><path d="M3851.9 663.55s-74.915-5.577-112.45-6.693c-12.043-.358-24.132.936-36.144 0-22.966-1.79-45.287-9.175-68.272-10.71-20.04-1.338-40.155 1.284-60.24 1.34-26.777.074-53.552-.63-80.319-1.34-24.55-.65-49.102-1.385-73.626-2.677-25.906-1.364-51.792-3.17-77.642-5.354-22.343-1.887-44.554-5.293-66.933-6.693-35.194-2.203-70.537-.879-105.75-2.678-23.242-1.187-46.389-3.828-69.61-5.354-24.526-1.612-49.086-2.653-73.626-4.016-23.651-1.315-47.751-8.805-70.949-4.016-7.817 1.613-13.685 8.731-21.418 10.709-11.68 2.986-24.102.74-36.144 1.338-7.145.356-14.288.76-21.419 1.339-8.94.726-18.204.031-26.773 2.677-5.342 1.65-12.359 2.967-14.725 8.032-1.926 4.123.056 9.667 2.677 13.387 2.998 4.254 11.395 3.225 13.387 8.032 1.409 3.4-2.324 7.047-2.677 10.71-.815 8.45-3.313 18.331 1.339 25.434 2.187 3.339 6.875 4.246 10.709 5.355 4.307 1.246 9.334-.582 13.387 1.339 2.28 1.08 4.311 3.056 5.354 5.354 2.772 6.109 3.068 13.598 1.339 20.08-.83 3.11-5.444 4.816-5.355 8.032.123 4.46 5.455 7.067 8.032 10.71 1.859 2.626 3.1 5.736 5.355 8.031 4.945 5.032 11.612 8.017 17.403 12.048 4.47 3.112 11.894 4.132 13.387 9.37.931 3.269-1.897 6.715-4.016 9.371-3.786 4.744-10.628 6.232-14.725 10.71-5.27 5.757-11.48 12.294-12.048 20.08-.422 5.785 3.465 11.243 6.693 16.063 2.107 3.146 5.46 5.254 8.032 8.032 2.795 3.019 5.103 6.482 8.032 9.37 2.481 2.448 7.319 3.283 8.032 6.694.817 3.907-5.89 6.754-5.355 10.71.806 5.948 11.242 7.437 12.048 13.386.402 2.966-4.629 5.102-4.016 8.032.714 3.411 5.95 3.899 8.032 6.693 2.03 2.725 3.06 6.11 4.016 9.371.763 2.605 1.663 5.337 1.339 8.032-.813 6.748-6.666 12.083-8.032 18.741-.449 2.185 0 6.693 0 6.693l-4.016 120.48 926.35-14.725z" fill="url(#A)" transform="translate(7.567 144.26) scale(.86656)"/><path d="M2962.5 680.88c-3.238 6.258 5.614 12.958 7.661 19.7.977 3.218 2.693 6.525 2.19 9.85-.441 2.908-4.175 4.727-4.379 7.661-.272 3.92 4.335 7.016 4.378 10.945.034 3.117-3.226 5.64-3.283 8.756-.063 3.46 2.575 6.463 3.283 9.85.825 3.944-1.407 8.88 1.095 12.04 4.297 5.425 12.868 5.457 19.7 6.566 3.24.526 7.097-1.79 9.85 0 3.013 1.958 3.384 6.397 4.378 9.85 1.426 4.959 3.015 10.23 2.188 15.322-.13.805-.738 1.455-1.094 2.19-2.992 6.166-5.86 12.392-8.756 18.605-2.206 4.735-5.643 9.087-6.566 14.228-.842 4.682 4.103 10.544 1.094 14.228-1.86 2.278-6.354-.604-8.756 1.095-2.663 1.884-3.213 5.707-4.378 8.755-1.484 3.886-3.755 7.907-3.283 12.04.612 5.35 3.795 10.476 7.661 14.227 5.27 5.113 15.84 3.605 19.7 9.85 2.302 3.724 0 8.756 0 13.134 0 2.554.024 5.108 0 7.662-.183 23.715-1.094 71.14-1.094 71.14l157.6-4.378-7.661-286.75s-13.865 1.485-20.795 1.094c-4.432-.25-8.742-1.548-13.134-2.189-8.732-1.272-17.444-3.408-26.267-3.283-4.798.068-9.438 1.905-14.228 2.189-10.568.625-21.283.554-31.74-1.094-5.247-.828-10.02-4.078-15.322-4.378-6.647-.377-13.051 2.955-19.7 3.283-5.478.27-11.035-.036-16.417-1.094-5.66-1.113-10.653-5.251-16.417-5.473-6.013-.23-14.746-.966-17.511 4.378z" fill="url(#B)" transform="translate(7.567 144.26) scale(.86656)"/><path d="M3098.2 998.02l3.904-88.85 19.521-23.425 11.713-11.713v-23.425l19.521-19.521v-7.808l-3.904-23.425 3.904-17.57 3.904-13.664-15.617-25.377-9.76-15.617 3.904-19.521-7.808-19.521 19.52 1.952 21.474-3.904 23.425-7.809 29.282 9.76 54.659 1.953 33.186 11.713 50.755-1.952 31.234 1.952h44.898l23.425 1.952h37.09l23.425-3.904 68.324 1.952 39.042 9.76 25.377-1.952 29.282-5.856 33.186 3.904 15.617 307.49z" fill="url(#C)" transform="translate(7.567 144.26) scale(.86656)"/><path d="M3626.8 988.6l-5.807-53.194 4.355-18.871 4.355-15.968 2.903-8.71 7.258-13.064 2.904-21.774 13.064-17.419s4.355-5.806-2.903-10.16-15.968-8.71-15.968-8.71l-10.161-5.807-1.452-24.678v-18.871l13.065-10.161 5.806-4.355 1.452-10.16-2.903-8.71-20.323-14.517-18.871-13.064 11.613-5.806h18.87l17.42-7.258 13.065-5.807 21.774-7.258 24.678-2.903 21.774 10.16 26.129-1.45 21.774 7.257 20.323 2.904 27.58 10.16 15.969 4.356h45l-2.903 295.61z" fill="url(#D)" transform="translate(7.567 144.26) scale(.86656)"/><path d="M2721.893 758.833l14.052 18.737 30.447 21.079 28.105-4.684h35.132l21.079 11.71 21.079-7.026 23.421 16.395 28.105-4.685 30.448-11.71 23.421-14.053 25.763 21.079 18.737 2.342 21.079-21.08 23.42 7.027v23.42l-14.052 18.737 11.71 11.711 28.106-7.026 32.789-16.395 4.684-2.342-16.394 23.421-35.132 28.106-9.368 14.053-30.447 25.762-11.711 14.053 2.342 74.431 327.022 35.131 10.838-285.22z" opacity=".5"/><path d="M2474.056 690.723l-1.516 2.275c-3.234 1.08-6.276 2.535-7.61 5.389-1.669 3.573.058 8.367 2.33 11.59 1.517 2.153 4.612 2.76 7.284 3.71l4.576 4.576c.05 2.559-2.312 5.26-2.572 7.962-.707 7.323-2.894 15.888 1.137 22.044 1.895 2.893 5.966 3.669 9.289 4.63 3.733 1.08 8.078-.5 11.59 1.165 1.977.936 3.754 2.638 4.658 4.63 2.402 5.294 2.662 11.796 1.164 17.413-.719 2.694-4.735 4.172-4.658 6.96.107 3.865 4.727 6.131 6.96 9.288 1.61 2.277 2.703 4.971 4.658 6.96 4.285 4.36 10.066 6.933 15.083 10.425 3.874 2.697 10.297 3.585 11.59 8.124.807 2.832-1.656 5.822-3.493 8.124-3.28 4.112-9.204 5.41-12.755 9.289-4.567 4.99-9.933 10.64-10.425 17.385-.366 5.013 2.998 9.743 5.795 13.919 1.825 2.726 4.73 4.552 6.96 6.96 2.421 2.615 4.42 5.62 6.959 8.123 2.15 2.12 6.341 2.84 6.96 5.795.707 3.386-5.095 5.861-4.631 9.289.698 5.155 9.728 6.435 10.425 11.59.168 1.241-.763 2.321-1.706 3.385 15.212 16.47 27.674 30.786 30.52 36.477 8.485 16.972 1.72 37.072-8.504 50.91-4.617 6.25-16.655 3.886-20.85 10.426-7.517 11.714-9.834 30.652-1.409 41.73 9.179 12.07 29.15 8.999 44.221 10.67 114.664 12.713 234.5 23.915 346.053-5.498 12.877-3.396 23.572-12.423 35.068-19.146 11.513-6.732 23.88-12.438 33.931-21.204 8.328-7.26 20.48-14.431 21.231-25.455.907-13.311-9.936-26.83-21.23-33.93-21.684-13.634-50.975-5.141-76.366-8.504-18.442-2.443-36.613-7.06-55.162-8.476-15.508-1.185-39.32 13.712-46.66 0-7.217-13.486 10.457-35.179 25.456-38.182 9.996-2.002 15.564 14.488 25.455 16.951 13.793 3.436 28.869.022 42.435-4.224 13.898-4.35 25.18-14.675 38.182-21.23 15.254-7.692 44.45-4.264 46.66-21.205 2.597-19.928-44.55-18.197-46.66-38.182-.951-9.012 10.093-15.34 16.98-21.23 8.658-7.406 20.625-10.038 29.68-16.953 4.768-3.64 12.727-12.728 12.727-12.728l63.665 4.225s12.493 28.283 25.455 29.706c21.086 2.317 50.91-38.182 50.91-38.182l16.952-33.93h-123.025l-186.692 4.224z" opacity=".5" stroke="#000" stroke-width="2.339"/><path d="M3049.192 755.958l99.03 3.144 191.77 3.143 6.288 29.866-26.722 1.572-17.291 11.004-36.154-1.572-9.432-4.716-22.006-6.287-31.438 4.715-29.866 4.716-34.582-9.432h-29.866l-36.154-7.86z" opacity=".5"/><path d="M3248.5 626.33l20.895 17.312 17.896-3.885 24.193 1.918 23.766-7.208 20.895 17.312 30.632 10.76 34.64 10.573 12.452 8.562 43.653 27.096 16.034-.75 34.925 16.657 17.469-13.01 17.754-6.925 18.891 17.405 24.335 4.958 28.201 1.73 36.36 4.396 36.36 4.397 32.067-1.499 34.214 1.449 45.243-16.011 36.36 4.396-2.261-91.336-108.09 8.1s-20.042.938-38.507-7.343-35.934 4.727-45.955 5.196-36.218-1.355-36.218-1.355-7.448 12.54-31.783 7.582-16.46-8.375-30.49-7.719-20.326-5.146-36.36-4.397-31.925 4.541-31.925 4.541l-32.636-10.667s-29.352 16.612-37.653 10.904-24.477-8-24.477-8l-30.063 1.406-34.214-1.45-23.908 4.167z" fill="url(#E)" transform="translate(7.567 144.26) scale(.86656)"/><path d="M2849.7 631.22h30.568l10.917-6.55h30.568l19.651-13.101 32.752 10.917h30.568l17.468-6.55 17.468 4.366 24.018-2.183h21.835l28.385 6.55 28.385-4.367 21.834 8.734 26.202 2.184h131.01l69.871 10.917 30.569 6.55 21.835-4.367 19.651 6.55 24.018 6.551 13.101 4.367 17.468 10.917 10.917 4.367 15.284 4.367 17.468 6.55 10.917 8.734 6.55 26.202-32.752 2.183-21.835-8.734-50.22-21.834-8.733 2.184-6.55 21.835-30.569 8.733-37.119 2.184-39.302-8.734z" fill="url(#F)" transform="translate(7.567 144.26) scale(.86656)"/><path d="M2855.9 666.08l-19.921-19.921 11.384-17.075h34.151l42.688 5.692 8.538 5.692 11.384-11.384 56.918 11.384 34.15 8.537 19.923-2.846 45.534 5.692 42.688-5.692 22.767 17.076 39.843 2.846 39.843 11.384 28.459 19.921 36.996 11.384 39.843 5.692 31.305 8.538s-17.075 8.538-28.46 8.538-65.455-11.384-65.455-11.384-36.997-8.538-48.38-8.538-34.151 2.846-48.38 2.846-65.456-19.921-65.456-19.921l-19.921 14.23-31.305-2.846-48.38 8.537-42.688-5.692-28.46-5.691-39.841-2.846-22.767 2.846-31.305-2.846z" fill="url(#G)" transform="translate(7.567 144.26) scale(.86656)"/><path transform="translate(7.567 120.31) scale(.86656)" d="M3488.8 684.94l23.088 2.565 35.914 2.566 46.176-7.696 48.741 17.957h82.09l41.045 7.696-2.565 15.392s-7.696-2.566-20.523-2.566-41.045-10.26-41.045-10.26l-25.653 2.565s-2.566 5.13-15.392 5.13h-51.306l-41.045 5.13-94.917-20.522z" fill="url(#H)"/><path d="M3859.9 610.76s-82.491-6.141-123.82-7.37c-13.26-.395-26.573 1.03-39.799 0-25.288-1.972-49.867-10.102-75.176-11.792-22.067-1.474-44.216 1.412-66.332 1.474-29.485.082-58.968-.693-88.442-1.474-27.032-.717-54.068-1.526-81.072-2.948-28.526-1.502-57.03-3.492-85.494-5.896-24.602-2.078-49.06-5.829-73.702-7.37-38.753-2.425-77.671-.968-116.45-2.949-25.592-1.307-51.08-4.215-76.65-5.896-27.006-1.775-54.05-2.92-81.072-4.422-26.043-1.447-52.58-9.695-78.124-4.422-8.608 1.777-15.069 9.615-23.584 11.792-12.862 3.289-26.54.814-39.799 1.474-7.867.391-15.734.836-23.585 1.474-9.844.8-20.044.034-29.481 2.948-5.883 1.816-13.609 3.266-16.214 8.844-2.12 4.54.062 10.645 2.948 14.74 3.301 4.684 12.548 3.55 14.74 8.844 1.55 3.744-2.559 7.76-2.948 11.792-.898 9.306-3.648 20.186 1.474 28.007 2.408 3.677 7.57 4.675 11.792 5.897 4.744 1.372 10.278-.641 14.74 1.474 2.512 1.19 4.747 3.365 5.896 5.896 3.052 6.726 3.378 14.974 1.474 22.11-.913 3.424-5.994 5.303-5.896 8.845.135 4.912 6.006 7.781 8.844 11.792 2.047 2.892 3.413 6.317 5.896 8.844 5.445 5.542 12.787 8.828 19.163 13.266 4.923 3.427 13.097 4.55 14.74 10.318 1.026 3.599-2.088 7.393-4.422 10.318-4.168 5.224-11.702 6.863-16.215 11.792-5.803 6.34-12.64 13.538-13.266 22.111-.465 6.37 3.816 12.381 7.37 17.688 2.32 3.464 6.012 5.785 8.845 8.844 3.077 3.324 5.618 7.138 8.844 10.318 2.732 2.695 8.058 3.614 8.844 7.37.9 4.302-6.486 7.438-5.896 11.793.887 6.55 12.38 8.19 13.266 14.74.442 3.266-5.097 5.618-4.422 8.844.785 3.756 6.55 4.293 8.844 7.37 2.236 3 3.37 6.727 4.422 10.318.84 2.868 1.831 5.877 1.474 8.844-.895 7.43-7.34 13.305-8.844 20.637-.494 2.407 0 7.37 0 7.37l-4.422 132.66 1020-16.214z" fill="url(#I)"/><path d="M2880.6 629.84c-3.565 6.89 6.182 14.269 8.436 21.693 1.076 3.544 2.965 7.184 2.41 10.846-.484 3.202-4.596 5.205-4.82 8.436-.3 4.316 4.773 7.725 4.82 12.051.038 3.432-3.552 6.21-3.615 9.641-.07 3.81 2.835 7.116 3.615 10.846.909 4.343-1.55 9.779 1.206 13.257 4.732 5.975 14.168 6.01 21.692 7.231 3.57.58 7.815-1.97 10.847 0 3.317 2.156 3.726 7.044 4.82 10.846 1.57 5.46 3.32 11.264 2.41 16.872-.143.887-.813 1.602-1.205 2.41-3.295 6.79-6.453 13.646-9.641 20.487-2.43 5.214-6.214 10.006-7.23 15.667-.927 5.156 4.517 11.61 1.204 15.667-2.048 2.509-6.997-.665-9.64 1.206-2.934 2.075-3.54 6.284-4.822 9.64-1.634 4.28-4.135 8.707-3.615 13.258.674 5.893 4.18 11.537 8.436 15.667 5.802 5.629 17.442 3.969 21.693 10.846 2.535 4.1 0 9.64 0 14.462 0 2.812.027 5.624 0 8.436-.202 26.114-1.205 78.334-1.205 78.334l173.54-4.82-8.436-315.75s-15.267 1.634-22.898 1.204c-4.88-.275-9.626-1.705-14.462-2.41-9.615-1.401-19.208-3.753-28.924-3.615-5.283.074-10.392 2.098-15.667 2.41-11.637.688-23.435.61-34.95-1.205-5.777-.911-11.031-4.49-16.871-4.82-7.32-.415-14.371 3.254-21.693 3.615-6.032.297-12.152-.04-18.077-1.205-6.233-1.226-11.73-5.782-18.077-6.026-6.62-.255-16.238-1.064-19.282 4.82z" fill="url(#J)"/><path d="M3030.1 979.06l4.3-97.836 21.494-25.794 12.897-12.897v-25.794l21.496-21.495v-8.598l-4.299-25.794 4.3-19.346 4.298-15.047-17.196-27.944-10.748-17.196 4.3-21.495-8.599-21.495 21.495 2.15 23.645-4.3 25.794-8.598 32.243 10.748 60.187 2.15 36.542 12.897 55.888-2.15 34.392 2.15h49.44l25.793 2.15h40.841l25.794-4.3 75.233 2.15 42.99 10.747 27.944-2.15 32.243-6.448 36.542 4.299 17.196 338.58z" fill="url(#K)"/><path d="M3612.1 968.69l-6.394-58.574 4.795-20.78 4.796-17.583 3.197-9.59 7.992-14.387 3.197-23.977 14.386-19.18s4.795-6.394-3.197-11.19-17.583-9.59-17.583-9.59l-11.189-6.394-1.599-27.173v-20.78l14.386-11.189 6.394-4.795 1.599-11.19-3.197-9.59-22.378-15.984-20.78-14.386 12.787-6.394h20.78l19.18-7.992 14.387-6.393 23.977-7.993 27.173-3.196 23.976 11.189 28.772-1.599 23.977 7.992 22.378 3.197 30.37 11.19 17.583 4.795h49.55l-3.196 325.51z" fill="url(#L)"/><path d="M3067.5 661.03l17.856 23.808 38.689 26.785 35.713-5.952h44.641l26.785 14.88 26.785-8.928 29.761 20.832 35.713-5.952 38.689-14.88 29.761-17.857 32.737 26.785 23.809 2.976 26.785-26.785 29.761 8.928v29.76l-17.856 23.81 14.88 14.88 35.713-8.929 41.665-20.832 5.952-2.976-20.832 29.761-44.64 35.713-11.905 17.857-38.689 32.737-14.88 17.857 2.977 94.58 415.54 44.64 13.77-362.43z" opacity=".5"/><path d="M2752.7 574.49l-1.927 2.89c-4.109 1.372-7.975 3.222-9.67 6.848-2.12 4.54.074 10.632 2.96 14.728 1.928 2.736 5.862 3.508 9.256 4.714l5.816 5.816c.062 3.25-2.938 6.684-3.27 10.117-.897 9.305-3.676 20.19 1.446 28.01 2.408 3.676 7.581 4.662 11.803 5.884 4.743 1.372 10.265-.635 14.728 1.48 2.512 1.19 4.77 3.353 5.919 5.884 3.052 6.726 3.383 14.989 1.48 22.126-.914 3.423-6.018 5.301-5.92 8.843.136 4.912 6.006 7.792 8.844 11.803 2.047 2.893 3.435 6.316 5.919 8.844 5.445 5.541 12.79 8.81 19.166 13.248 4.922 3.426 13.084 4.555 14.728 10.323 1.025 3.598-2.105 7.398-4.44 10.323-4.167 5.224-11.694 6.873-16.206 11.803-5.803 6.34-12.623 13.519-13.248 22.09-.465 6.371 3.81 12.38 7.364 17.688 2.32 3.464 6.01 5.784 8.843 8.843 3.078 3.324 5.618 7.142 8.844 10.323 2.732 2.695 8.057 3.608 8.843 7.364.9 4.302-6.474 7.448-5.884 11.803.887 6.55 12.36 8.177 13.248 14.728.213 1.577-.97 2.95-2.168 4.301 19.329 20.927 35.164 39.12 38.78 46.351 10.783 21.566 2.187 47.108-10.804 64.691-5.868 7.942-21.164 4.937-26.496 13.248-9.55 14.885-12.495 38.95-1.79 53.026 11.664 15.337 37.042 11.434 56.193 13.558 145.7 16.156 297.98 30.39 439.73-6.985 16.364-4.315 29.952-15.786 44.56-24.328 14.63-8.555 30.343-15.806 43.117-26.943 10.582-9.227 26.023-18.338 26.978-32.346 1.152-16.914-12.626-34.092-26.978-43.116-27.552-17.323-64.773-6.532-97.037-10.805-23.434-3.104-46.524-8.97-70.094-10.77-19.706-1.505-49.964 17.425-59.29 0-9.171-17.137 13.288-44.702 32.347-48.519 12.702-2.544 19.776 18.41 32.346 21.541 17.527 4.366 36.683.027 53.92-5.368 17.66-5.528 31.996-18.647 48.52-26.978 19.384-9.773 56.483-5.417 59.289-26.943 3.3-25.323-56.608-23.123-59.29-48.519-1.208-11.45 12.826-19.493 21.576-26.978 11.002-9.41 26.208-12.754 37.714-21.54 6.059-4.628 16.173-16.174 16.173-16.174l80.899 5.368s15.874 35.94 32.346 37.748c26.794 2.943 64.692-48.519 64.692-48.519l21.54-43.116h-156.33l-237.23 5.368z" opacity=".5" stroke="#000" stroke-width="2.972"/><path transform="translate(0 -27.638)" d="M1010.3 543.81l-10.031.156c-.583 2.737-.713 5.668-.156 8.656a13.58 13.58 0 004.625 7.532c2.427 1.899 5.114 3.004 7.656 3.656 6.174 1.657 12.274 1.872 17.906 2.437 19.874 5.042 28.98 18.266 6.656 22.688-20.574 3.334-45.413 8.361-53 19.938.487 6.37 9.19 9.078 12.281 12.312 47.94 20.62 83.774 31.147 133.53 45.094 21.791 6.036 43.411 12.375 63.812 20.906 17.102 6.912 38.878 5.904 46.656 28.031 8.944 50.111 35.636 49.967 101.5 60.656 32.817 5.354 61.915 4.236 92.781 13.281 1.184.325 5.773 7.296 6.094 8.25 1.112 1.686 1.628 4.953 2.844 9.282 1.135 4.852 2.896 10.393 6 16.125 9.405 14.518 24.23 20.687 39.406 24.25 32.54 5.097 66.752 17.834 92.5 31.719-.037.068-1.435.405-15.875 2.093-4.93 1.06-10.278 2.528-15.813 4.938-4.634 1.782-9.785 5.262-14.625 10.844-4.072 5.92-5.427 12.056-4.25 17.656 1.212 5.385 3.004 9.323 4.719 11.844.868 8.018 2.011 14.5-5.407 16.062-113.29 27.445-167.71 33.128-330.12 97.937-28.763 13.514-135.49 64.603-163.22 80.469a2192.74 2192.74 0 00-2.875 5.875l87.5-.219c30.64-18.694 72.274-22.264 104.5-38.219 111.97-48.99 245.62-76.187 308.16-108.88 18.786-4.924 29.413-14.761 36.031-21.781 4.132-5.407 5.933-11.596 5.344-17.969-.869-5.892-2.567-10.252-4.437-13.156-6.542-34.478 51.026-25.312 55.219-32.438 4.996-22.446-16.824-31.977-32.375-39.344-51.457-22.42-81.615-19.562-116.34-37.594-3.072-1.63-5.848-3.89-7.344-6.562-1.53-2.295-2.447-5.92-3.719-10.22-.898-3.781-2.287-8.87-5.344-14.687-3.832-6.453-9.688-10.984-16.625-12.938-67.077-11.331-170.81-25.687-182.47-33.812s-6.577-28.96-15.594-37.625c-15.775-13.926-27.716-13.3-46.219-20.5-21.738-8.521-47.602-18.372-69.687-23.97-49.418-12.298-78.198-21.796-124.53-40.468 0 0-11.72-2.65-4.625-11.906 19.737-3.43 33.195-2.438 51.875-12.47 1.68-.874 3.476-2.285 5.157-4.406 5.631-9.523-7.773-19.046-14.438-22.969-12.268-7.211-38.838-1.744-33.625-20.562z" fill="url(#M)"/><path transform="translate(0 -27.638)" d="M1010.3 543.81l-10.031.156c-.583 2.737-.713 5.668-.156 8.656a13.58 13.58 0 004.625 7.532c2.427 1.899 5.114 3.004 7.656 3.656 6.174 1.657 12.274 1.872 17.906 2.437 19.874 5.042 28.98 18.266 6.656 22.688-20.574 3.334-45.413 8.361-53 19.938.487 6.37 9.19 9.078 12.281 12.312 47.94 20.62 83.774 31.147 133.53 45.094 21.791 6.036 43.411 12.375 63.812 20.906 17.102 6.912 38.878 5.904 46.656 28.031 8.944 50.111 35.636 49.967 101.5 60.656 32.817 5.354 61.915 4.236 92.781 13.281 1.184.325 5.773 7.296 6.094 8.25 1.112 1.686 1.628 4.953 2.844 9.282 1.135 4.852 2.896 10.393 6 16.125 9.405 14.518 24.23 20.687 39.406 24.25 32.54 5.097 66.752 17.834 92.5 31.719-.037.068-1.435.405-15.875 2.093-4.93 1.06-10.278 2.528-15.813 4.938-4.634 1.782-9.785 5.262-14.625 10.844-4.072 5.92-5.427 12.056-4.25 17.656 1.212 5.385 3.004 9.323 4.719 11.844.868 8.018 2.011 14.5-5.407 16.062-113.29 27.445-167.71 33.128-330.12 97.937-28.763 13.514-135.49 64.603-163.22 80.469a2192.74 2192.74 0 00-2.875 5.875l87.5-.219c30.64-18.694 72.274-22.264 104.5-38.219 111.97-48.99 245.62-76.187 308.16-108.88 18.786-4.924 29.413-14.761 36.031-21.781 4.132-5.407 5.933-11.596 5.344-17.969-.869-5.892-2.567-10.252-4.437-13.156-6.542-34.478 51.026-25.312 55.219-32.438 4.996-22.446-16.824-31.977-32.375-39.344-51.457-22.42-81.615-19.562-116.34-37.594-3.072-1.63-5.848-3.89-7.344-6.562-1.53-2.295-2.447-5.92-3.719-10.22-.898-3.781-2.287-8.87-5.344-14.687-3.832-6.453-9.688-10.984-16.625-12.938-67.077-11.331-170.81-25.687-182.47-33.812s-6.577-28.96-15.594-37.625c-15.775-13.926-27.716-13.3-46.219-20.5-21.738-8.521-47.602-18.372-69.687-23.97-49.418-12.298-78.198-21.796-124.53-40.468 0 0-11.72-2.65-4.625-11.906 19.737-3.43 33.195-2.438 51.875-12.47 1.68-.874 3.476-2.285 5.157-4.406 5.631-9.523-7.773-19.046-14.438-22.969-12.268-7.211-38.838-1.744-33.625-20.562z" fill="#cb7440" filter="url(#N)"/><path d="M3007 925.61c8.109-4.23 14.365-12.769 23.368-14.38 21.052-3.768 42.279 6.96 62.913 12.583 14.078 3.837 27.379 10.149 41.343 14.38 15.994 4.846 32.146 9.299 48.533 12.583 16.617 3.33 33.729 3.783 50.33 7.19 15.804 3.244 30.68 11.001 46.735 12.583 17.928 1.766 36.316.207 53.926-3.595 10.008-2.161 19.375-6.692 28.76-10.785 13.509-5.891 27.929-10.703 39.545-19.773 4.354-3.4 6.47-9.133 10.785-12.583 9.001-7.198 20.657-10.277 30.558-16.178 16.702-9.954 29.148-30.844 48.533-32.355 8.553-.667 15.524 7.31 23.368 10.785 23.808 10.551 45.995 27.9 71.9 30.558 6.078.624 12.182-5.537 17.975-3.595 13.682 4.585 17.13 23.813 28.76 32.355 10.591 7.779 23.217 12.929 35.95 16.178 7.57 1.931 15.583 1.144 23.368 1.798 13.19 1.106 26.446 1.695 39.545 3.595 15.118 2.192 29.67 9.47 44.938 8.987 9.297-.294 18.264-3.895 26.963-7.19 5.011-1.898 9.302-5.477 14.38-7.19 12.207-4.118 37.974-7.19 37.974-7.19l17.975 115.04-3927.4 21.57-14.38-106.05s1891.5 68.317 2832.5-8.988c67.151-5.516 134.87-13.383 199.52-32.355 14.419-4.231 28.02-11.024 41.343-17.975z" fill="#b4592d"/><path d="M3483.5 657.39l125.84 3.995 243.68 3.995 7.99 37.95-33.956 1.998-21.972 13.982-45.94-1.997-11.984-5.993-27.964-7.99-39.948 5.993-37.951 5.992-43.943-11.984H3559.4l-45.94-9.987z" opacity=".5"/><path d="M3195.6 569.78l23.008 19.063 19.705-4.278 26.64 2.111 26.17-7.936 23.008 19.062 33.73 11.85 38.143 11.641 13.711 9.428 48.068 29.836 17.655-.825 38.457 18.34 19.236-14.324 19.549-7.626 20.801 19.165 26.796 5.46 31.053 1.905 40.037 4.84 40.037 4.842 35.31-1.651 37.674 1.595 49.818-17.63 40.037 4.841-2.49-100.57-119.02 8.92s-22.069 1.032-42.4-8.087-39.569 5.206-50.603 5.722-39.88-1.492-39.88-1.492-8.202 13.81-34.998 8.349-18.125-9.222-33.573-8.5-22.382-5.666-40.037-4.841-35.154 5-35.154 5l-35.937-11.745s-32.32 18.293-41.46 12.007-26.954-8.81-26.954-8.81l-33.103 1.548-37.674-1.595-26.326 4.587z" fill="url(#O)"/><path d="M2756.4 575.16h33.66l12.022-7.213h33.66l21.639-14.426 36.064 12.021h33.66l19.234-7.213 19.234 4.81 26.447-2.405h24.043l31.256 7.213 31.256-4.809 24.042 9.617 28.851 2.404h144.26l76.937 12.021 33.66 7.213 24.043-4.808 21.638 7.212 26.447 7.213 14.425 4.809 19.234 12.02 12.021 4.81 16.83 4.808 19.234 7.213 12.021 9.617 7.213 28.852-36.064 2.404-24.043-9.617-55.298-24.043-9.617 2.404-7.213 24.043-33.66 9.617-40.873 2.404-43.277-9.617z" fill="url(#P)"/><path d="M2763.2 613.55l-21.936-21.936 12.535-18.802h37.604l47.005 6.267 9.401 6.268 12.535-12.535 62.674 12.535 37.604 9.401 21.936-3.134 50.14 6.268 47.005-6.268 25.07 18.802 43.872 3.134 43.872 12.535 31.337 21.936 40.738 12.535 43.872 6.267 34.471 9.401s-18.802 9.402-31.337 9.402-72.075-12.535-72.075-12.535-40.738-9.402-53.273-9.402c-12.535 0-37.605 3.134-53.273 3.134s-72.076-21.936-72.076-21.936l-21.936 15.669-34.47-3.134-53.274 9.401-47.006-6.267-31.337-6.268-43.872-3.133-25.07 3.133-34.47-3.133z" fill="url(#Q)"/><path d="M3460.2 603.88l25.423 2.825 39.546 2.825 50.846-8.475 53.67 19.773h90.392l45.196 8.475-2.825 16.949s-8.474-2.825-22.598-2.825-45.196-11.3-45.196-11.3l-28.248 2.826s-2.825 5.65-16.949 5.65h-56.495l-45.196 5.649-104.52-22.598z" fill="url(#R)"/><path d="M3493.9 875.24a13.1 13.1 0 00-1.583.034c-19.384 1.512-31.817 22.392-48.519 32.346-9.9 5.9-21.555 9.01-30.556 16.207-4.314 3.45-6.45 9.16-10.805 12.56-11.616 9.07-26.028 13.895-39.537 19.786-9.385 4.093-18.759 8.61-28.767 10.77-17.609 3.803-35.993 5.38-53.92 3.613-16.056-1.581-30.927-9.35-46.73-12.594-16.6-3.407-33.726-3.861-50.342-7.191-16.387-3.284-32.524-7.714-48.519-12.56-13.964-4.231-27.284-10.547-41.36-14.384-20.635-5.624-41.852-16.363-62.903-12.594-9.003 1.611-15.256 10.153-23.365 14.384-13.323 6.95-26.942 13.73-41.36 17.962-64.652 18.972-132.36 26.876-199.51 32.38-31.168 2.554-63.285 4.948-96.212 7.226l.654 11.768 51.925 19.958 59.943 4.026 47.934-8.018 119.85-3.991 103.85 3.991 95.867 12.01 91.876-8.018 75.91-11.975 47.933 7.983 43.942-19.958 43.942-3.992 43.942-3.991 39.95-3.992 83.892 31.933 35.96-3.992 107.88-3.991 3.922-27.528c-12.044-1.68-23.779-6.709-35.89-8.465-13.099-1.9-26.348-2.472-39.538-3.58-7.785-.652-15.795.143-23.365-1.788-12.733-3.25-25.368-8.429-35.959-16.207-11.63-8.543-15.085-27.76-28.767-32.346-5.794-1.942-11.884 4.236-17.962 3.613-25.906-2.658-48.109-20.006-71.918-30.556-7.353-3.259-13.94-10.5-21.782-10.84z" fill="url(#S)"/></g></svg>